<svg width="48" height="48" viewBox="0 0 48 48" fill="none" xmlns="http://www.w3.org/2000/svg">
<rect x="1" y="1" width="46" height="46" rx="23" fill="#34A853"/>
<path d="M23.0625 36.5001C22.375 36.5001 21.6823 36.422 20.9844 36.2658C20.2865 36.1095 19.5729 35.8856 18.8438 35.5939C19.0938 33.0731 19.8229 30.7189 21.0313 28.5314C22.2396 26.3439 23.7917 24.4168 25.6875 22.7501C23.3958 23.9168 21.4115 25.4585 19.7344 27.3751C18.0573 29.2918 16.8854 31.4793 16.2188 33.9376C16.1354 33.8751 16.0573 33.8074 15.9844 33.7345L15.75 33.5001C14.7708 32.521 14.026 31.4272 13.5156 30.2189C13.0052 29.0106 12.75 27.7501 12.75 26.4376C12.75 25.021 13.0313 23.6668 13.5938 22.3751C14.1563 21.0835 14.9375 19.9376 15.9375 18.9376C17.625 17.2501 19.8125 16.1512 22.5 15.6408C25.1875 15.1303 28.9583 15.0835 33.8125 15.5001C34.1875 20.4793 34.125 24.2762 33.625 26.8908C33.125 29.5053 32.0417 31.646 30.375 33.3126C29.3542 34.3335 28.2135 35.1199 26.9531 35.672C25.6927 36.2241 24.3958 36.5001 23.0625 36.5001Z" fill="black"/>
<rect x="1" y="1" width="46" height="46" rx="23" stroke="black" stroke-width="2"/>
</svg>
