<svg width="48" height="48" viewBox="0 0 48 48" fill="none" xmlns="http://www.w3.org/2000/svg">
<rect x="1" y="1" width="46" height="46" rx="23" fill="#4285F4"/>
<path d="M24 35.875C21.2292 35.875 18.8698 34.9167 16.9219 33C14.974 31.0833 14 28.75 14 26C14 24.6875 14.2552 23.4323 14.7656 22.2344C15.276 21.0365 16 19.9792 16.9375 19.0625L24 12.125L31.0625 19.0625C32 19.9792 32.724 21.0365 33.2344 22.2344C33.7448 23.4323 34 24.6875 34 26C34 28.75 33.026 31.0833 31.0781 33C29.1302 34.9167 26.7708 35.875 24 35.875Z" fill="black"/>
<rect x="1" y="1" width="46" height="46" rx="23" stroke="black" stroke-width="2"/>
</svg>
