<svg width="48" height="48" viewBox="0 0 48 48" fill="none" xmlns="http://www.w3.org/2000/svg">
<rect x="1" y="1" width="46" height="46" rx="23" fill="#EA4335"/>
<path d="M14 26.5C14 24.3125 14.5208 22.3646 15.5625 20.6562C16.6042 18.9479 17.75 17.5104 19 16.3438C20.25 15.1771 21.3958 14.2865 22.4375 13.6719L24 12.75V16.875C24 17.6458 24.2604 18.2552 24.7812 18.7031C25.3021 19.151 25.8854 19.375 26.5312 19.375C26.8854 19.375 27.224 19.3021 27.5469 19.1562C27.8698 19.0104 28.1667 18.7708 28.4375 18.4375L29 17.75C30.5 18.625 31.7083 19.8385 32.625 21.3906C33.5417 22.9427 34 24.6458 34 26.5C34 28.3333 33.5521 30.0052 32.6562 31.5156C31.7604 33.026 30.5833 34.2188 29.125 35.0938C29.4792 34.5938 29.7552 34.0469 29.9531 33.4531C30.151 32.8594 30.25 32.2292 30.25 31.5625C30.25 30.7292 30.0938 29.9427 29.7812 29.2031C29.4688 28.4635 29.0208 27.8021 28.4375 27.2188L24 22.875L19.5938 27.2188C18.9896 27.8229 18.5312 28.4896 18.2188 29.2188C17.9062 29.9479 17.75 30.7292 17.75 31.5625C17.75 32.2292 17.849 32.8594 18.0469 33.4531C18.2448 34.0469 18.5208 34.5938 18.875 35.0938C17.4167 34.2188 16.2396 33.026 15.3438 31.5156C14.4479 30.0052 14 28.3333 14 26.5ZM24 26.375L26.6562 28.9688C27.0104 29.3229 27.2812 29.7188 27.4688 30.1562C27.6562 30.5938 27.75 31.0625 27.75 31.5625C27.75 32.5833 27.3854 33.4531 26.6562 34.1719C25.9271 34.8906 25.0417 35.25 24 35.25C22.9583 35.25 22.0729 34.8906 21.3438 34.1719C20.6146 33.4531 20.25 32.5833 20.25 31.5625C20.25 31.0833 20.3438 30.6198 20.5312 30.1719C20.7188 29.724 20.9896 29.3229 21.3438 28.9688L24 26.375Z" fill="black"/>
<rect x="1" y="1" width="46" height="46" rx="23" stroke="black" stroke-width="2"/>
</svg>
