<svg width="48" height="48" viewBox="0 0 48 48" fill="none" xmlns="http://www.w3.org/2000/svg">
<rect x="1" y="1" width="46" height="46" rx="23" fill="#FFFC5E"/>
<rect x="1" y="1" width="46" height="46" rx="23" stroke="black" stroke-width="2"/>
<path d="M21.5 34H26.5V32.625L28.0625 32C29.4167 31.4583 30.5677 30.7031 31.5156 29.7344C32.4635 28.7656 33.1458 27.6875 33.5625 26.5H14.4375C14.8542 27.6875 15.5312 28.7656 16.4688 29.7344C17.4062 30.7031 18.5625 31.4583 19.9375 32L21.5 32.625V34ZM19 36.5V34.3125C16.7708 33.4375 14.9635 32.0833 13.5781 30.25C12.1927 28.4167 11.5 26.3333 11.5 24H14V14L36.5 11.5V13.375L22.125 15V17.125H36.5V19H22.125V24H36.5C36.5 26.3333 35.8073 28.4167 34.4219 30.25C33.0365 32.0833 31.2292 33.4375 29 34.3125V36.5H19ZM19 17.125H20.25V15.1875L19 15.3438V17.125ZM15.875 17.125H17.125V15.5625L15.875 15.6875V17.125ZM19 24H20.25V19H19V24ZM15.875 24H17.125V19H15.875V24Z" fill="black"/>
</svg>
