<svg width="48" height="48" viewBox="0 0 48 48" fill="none" xmlns="http://www.w3.org/2000/svg">
<rect x="1" y="1" width="46" height="46" rx="23" fill="#FF5E00"/>
<rect x="1" y="1" width="46" height="46" rx="23" stroke="black" stroke-width="2"/>
<path d="M24.0625 37.75L18.1875 26.5C16.7083 26.5625 15.4323 26.1354 14.3594 25.2188C13.2865 24.3021 12.75 23.0625 12.75 21.5C12.75 20.4375 13.0573 19.4792 13.6719 18.625C14.2865 17.7708 15.0625 17.1667 16 16.8125C16.375 14.9167 17.3073 13.349 18.7969 12.1094C20.2865 10.8698 22.0208 10.25 24 10.25C25.9792 10.25 27.7135 10.8698 29.2031 12.1094C30.6927 13.349 31.625 14.9167 32 16.8125C32.9375 17.1667 33.7135 17.7708 34.3281 18.625C34.9427 19.4792 35.25 20.4375 35.25 21.5C35.25 23.0625 34.6979 24.3021 33.5938 25.2188C32.4896 26.1354 31.25 26.5625 29.875 26.5L24.0625 37.75ZM17.75 24C18.0625 24 18.3698 23.9479 18.6719 23.8438C18.974 23.7396 19.25 23.5625 19.5 23.3125L20.1875 22.625L21 23.125C21.4375 23.4167 21.9115 23.6354 22.4219 23.7812C22.9323 23.9271 23.4583 24 24 24C24.5417 24 25.0677 23.9271 25.5781 23.7812C26.0885 23.6354 26.5625 23.4167 27 23.125L27.8125 22.625L28.5 23.3125C28.75 23.5625 29.026 23.7396 29.3281 23.8438C29.6302 23.9479 29.9375 24 30.25 24C30.9375 24 31.526 23.7552 32.0156 23.2656C32.5052 22.776 32.75 22.1875 32.75 21.5C32.75 20.875 32.5521 20.3281 32.1562 19.8594C31.7604 19.3906 31.25 19.1042 30.625 19L29.6875 18.875L29.625 17.875C29.5208 16.4375 28.9271 15.224 27.8438 14.2344C26.7604 13.2448 25.4792 12.75 24 12.75C22.5208 12.75 21.2396 13.2448 20.1562 14.2344C19.0729 15.224 18.4792 16.4375 18.375 17.875L18.3125 18.875L17.375 19.0625C16.75 19.1875 16.2396 19.4688 15.8438 19.9062C15.4479 20.3438 15.25 20.875 15.25 21.5C15.25 22.1875 15.4948 22.776 15.9844 23.2656C16.474 23.7552 17.0625 24 17.75 24ZM24.0625 32.3125L27.4375 25.75C26.9375 26 26.3958 26.1875 25.8125 26.3125C25.2292 26.4375 24.625 26.5 24 26.5C23.4375 26.5 22.8698 26.4375 22.2969 26.3125C21.724 26.1875 21.1667 26 20.625 25.75L24.0625 32.3125Z" fill="black"/>
</svg>
