<svg width="48" height="48" viewBox="0 0 48 48" fill="none" xmlns="http://www.w3.org/2000/svg">
<rect x="1" y="1" width="46" height="46" rx="23" fill="white"/>
<path d="M22.25 29C22.25 27.3125 22.401 26.099 22.7031 25.3594C23.0052 24.6198 23.6458 23.8125 24.625 22.9375C25.4792 22.1875 26.1302 21.5365 26.5781 20.9844C27.026 20.4323 27.25 19.8021 27.25 19.0938C27.25 18.2396 26.9635 17.5312 26.3906 16.9688C25.8177 16.4062 25.0208 16.125 24 16.125C22.9375 16.125 22.1302 16.4479 21.5781 17.0938C21.026 17.7396 20.6354 18.3958 20.4063 19.0625L17.1875 17.6875C17.625 16.3542 18.4271 15.1979 19.5938 14.2188C20.7604 13.2396 22.2292 12.75 24 12.75C26.1875 12.75 27.8698 13.3594 29.0469 14.5781C30.224 15.7969 30.8125 17.2604 30.8125 18.9688C30.8125 20.0104 30.5885 20.901 30.1406 21.6406C29.6927 22.3802 28.9896 23.2188 28.0313 24.1562C27.0104 25.1354 26.3906 25.8802 26.1719 26.3906C25.9531 26.901 25.8438 27.7708 25.8438 29H22.25ZM24 36.5C23.3125 36.5 22.724 36.2552 22.2344 35.7656C21.7448 35.276 21.5 34.6875 21.5 34C21.5 33.3125 21.7448 32.724 22.2344 32.2344C22.724 31.7448 23.3125 31.5 24 31.5C24.6875 31.5 25.276 31.7448 25.7656 32.2344C26.2552 32.724 26.5 33.3125 26.5 34C26.5 34.6875 26.2552 35.276 25.7656 35.7656C25.276 36.2552 24.6875 36.5 24 36.5Z" fill="black"/>
<rect x="1" y="1" width="46" height="46" rx="23" stroke="black" stroke-width="2"/>
</svg>
