<svg width="48" height="48" viewBox="0 0 48 48" fill="none" xmlns="http://www.w3.org/2000/svg">
<rect x="1" y="1" width="46" height="46" rx="23" fill="white"/>
<rect x="1" y="1" width="46" height="46" rx="23" stroke="black" stroke-width="2"/>
<path d="M22.75 36.5V31.3125L18.6875 35.3125L16.9375 33.5625L22.75 27.75V25.25H20.25L14.4375 31.0625L12.6875 29.3125L16.6875 25.25H11.5V22.75H16.6875L12.6875 18.6875L14.4375 16.9375L20.25 22.75H22.75V20.25L16.9375 14.4375L18.6875 12.6875L22.75 16.6875V11.5H25.25V16.6875L29.3125 12.6875L31.0625 14.4375L25.25 20.25V22.75H27.75L33.5625 16.9375L35.3125 18.6875L31.3125 22.75H36.5V25.25H31.3125L35.3125 29.3125L33.5625 31.0625L27.75 25.25H25.25V27.75L31.0625 33.5625L29.3125 35.3125L25.25 31.3125V36.5H22.75Z" fill="black"/>
</svg>
