<svg width="40" height="40" viewBox="0 0 40 40" fill="none" xmlns="http://www.w3.org/2000/svg">
<path d="M6 14C6 22.8 15.6667 35 20.5 40C31.3 29.2 34 18.1667 34 14H6Z" fill="white"/>
<rect x="6" width="28" height="28" rx="14" fill="white"/>
<path d="M13.636 20.364C12.0074 18.7353 11 16.4853 11 14C11 11.5147 12.0074 9.26471 13.636 7.63603L11.5147 5.51471C9.34315 7.68628 8 10.6863 8 14C8 17.3137 9.34315 20.3137 11.5147 22.4853L13.636 20.364Z" fill="#FBBC05"/>
<path d="M9 12.5H15V15.5H9V12.5Z" fill="#FBBC05"/>
<rect x="11.125" y="5.02002" width="3" height="3" rx="1.5" fill="#4285F4"/>
<rect x="11.02" y="19.87" width="3" height="3" rx="1.5" fill="#EA4335"/>
<path d="M20 18C17.7909 18 16 16.2091 16 14C16 11.7909 17.7909 10 20 10C22.2091 10 24 11.7909 24 14H27C27 10.134 23.866 7 20 7C16.134 7 13 10.134 13 14C13 17.866 16.134 21 20 21V18Z" fill="#4285F4"/>
<path d="M20 18H29V21H20V18Z" fill="#4285F4"/>
<path d="M18.5 14H21.5V20H18.5V14Z" fill="#4285F4"/>
<rect x="24" y="12.5" width="3" height="3" rx="1.5" fill="#EA4335"/>
<rect x="18.5" y="12.5" width="3" height="3" rx="1.5" fill="#FBBC05"/>
<path d="M20 23V26C26.6274 26 32 20.6274 32 14C32 7.37258 26.6274 2 20 2V5C24.9706 5 29 9.02944 29 14C29 18.9706 24.9706 23 20 23Z" fill="#EA4335"/>
<rect x="18.5" y="2" width="3" height="3" rx="1.5" fill="#4285F4"/>
<rect x="18.5" y="23" width="3" height="3" rx="1.5" fill="#FBBC05"/>
</svg>
