<svg width="500" height="500" viewBox="0 0 500 500" fill="none" xmlns="http://www.w3.org/2000/svg">
<rect width="500" height="500" rx="250" fill="white"/>
<path d="M144.995 355.005C118.121 328.132 101.5 291.007 101.5 250C101.5 208.993 118.121 171.868 144.995 144.994L109.993 109.993C74.1619 145.824 52 195.324 52 250C52 304.676 74.1619 354.176 109.993 390.007L144.995 355.005Z" fill="#FBBC05"/>
<path d="M68.5 225.25H167.5V274.75H68.5V225.25Z" fill="#FBBC05"/>
<rect x="103.562" y="101.83" width="49.5" height="49.5" rx="24.75" fill="#4285F4"/>
<rect x="101.83" y="346.855" width="49.5" height="49.5" rx="24.75" fill="#EA4335"/>
<path d="M250 316C213.549 316 184 286.451 184 250C184 213.549 213.549 184 250 184C286.451 184 316 213.549 316 250H365.5C365.5 186.211 313.789 134.5 250 134.5C186.211 134.5 134.5 186.211 134.5 250C134.5 313.789 186.211 365.5 250 365.5V316Z" fill="#4285F4"/>
<path d="M250 316H398.5V365.5H250V316Z" fill="#4285F4"/>
<path d="M225.25 250H274.75V349H225.25V250Z" fill="#4285F4"/>
<rect x="316" y="225.25" width="49.5" height="49.5" rx="24.75" fill="#EA4335"/>
<rect x="225.25" y="225.25" width="49.5" height="49.5" rx="24.75" fill="#FBBC05"/>
<path d="M250 398.5V448C359.352 448 448 359.352 448 250C448 140.648 359.352 52 250 52V101.5C332.014 101.5 398.5 167.986 398.5 250C398.5 332.014 332.014 398.5 250 398.5Z" fill="#EA4335"/>
<rect x="225.25" y="52" width="49.5" height="49.5" rx="24.75" fill="#4285F4"/>
<rect x="225.25" y="398.5" width="49.5" height="49.5" rx="24.75" fill="#FBBC05"/>
</svg>
