<svg width="48" height="48" viewBox="0 0 48 48" fill="none" xmlns="http://www.w3.org/2000/svg">
<rect x="1" y="1" width="46" height="46" rx="23" fill="#D9D9D9"/>
<path d="M11.5 31.5V27.75C11.5 26.375 11.9896 25.1979 12.9688 24.2188C13.9479 23.2396 15.125 22.75 16.5 22.75H27.75V21.5C27.75 21.1458 27.6302 20.849 27.3906 20.6094C27.151 20.3698 26.8542 20.25 26.5 20.25H21.5C21.1458 20.25 20.849 20.3698 20.6094 20.6094C20.3698 20.849 20.25 21.1458 20.25 21.5H17.75C17.75 20.4583 18.1146 19.5729 18.8438 18.8438C19.5729 18.1146 20.4583 17.75 21.5 17.75H26.5C27.5417 17.75 28.4271 18.1146 29.1562 18.8438C29.8854 19.5729 30.25 20.4583 30.25 21.5V26.5C30.6042 26.5 30.901 26.3802 31.1406 26.1406C31.3802 25.901 31.5 25.6042 31.5 25.25V20.25C31.5 19.2083 31.8646 18.3229 32.5938 17.5938C33.3229 16.8646 34.2083 16.5 35.25 16.5H36.5V19H35.25C34.8958 19 34.599 19.1198 34.3594 19.3594C34.1198 19.599 34 19.8958 34 20.25V25.25C34 26.2917 33.6354 27.1771 32.9062 27.9062C32.1771 28.6354 31.2917 29 30.25 29V31.5H11.5ZM14 29H27.75V25.25H16.5C15.8125 25.25 15.224 25.4948 14.7344 25.9844C14.2448 26.474 14 27.0625 14 27.75V29Z" fill="black"/>
<rect x="1" y="1" width="46" height="46" rx="23" stroke="black" stroke-width="2"/>
</svg>
