<svg width="48" height="48" viewBox="0 0 48 48" fill="none" xmlns="http://www.w3.org/2000/svg">
<rect x="1" y="1" width="46" height="46" rx="23" fill="#34A853"/>
<path d="M24 35.25C22.6667 35.25 21.474 34.9062 20.4219 34.2188C19.3698 33.5312 18.5104 32.625 17.8438 31.5L14.875 33.1875L13.625 31.0312L16.8438 29.1562C16.7812 28.9271 16.7292 28.6927 16.6875 28.4531C16.6458 28.2135 16.6042 27.9792 16.5625 27.75H12.75V25.25H16.5625C16.6042 25 16.6458 24.7552 16.6875 24.5156C16.7292 24.276 16.7812 24.0417 16.8438 23.8125L13.625 21.9375L14.875 19.7812L17.8125 21.5C17.9792 21.2083 18.1719 20.9219 18.3906 20.6406C18.6094 20.3594 18.8333 20.1042 19.0625 19.875C19.0208 19.7292 19 19.5833 19 19.4375V19C19 18.5 19.0729 18.0208 19.2188 17.5625C19.3646 17.1042 19.5625 16.6771 19.8125 16.2812L17.75 14.2188L19.5 12.4375L21.6875 14.5625C22.0417 14.375 22.4115 14.2344 22.7969 14.1406C23.1823 14.0469 23.5833 14 24 14C24.4167 14 24.8229 14.0521 25.2188 14.1562C25.6146 14.2604 25.9896 14.4062 26.3438 14.5938L28.5 12.4375L30.25 14.2188L28.1875 16.2812C28.4375 16.6771 28.6302 17.1042 28.7656 17.5625C28.901 18.0208 28.9688 18.5 28.9688 19V19.4219C28.9688 19.5573 28.9479 19.6979 28.9062 19.8438C29.1354 20.0729 29.3594 20.3333 29.5781 20.625C29.7969 20.9167 29.9896 21.2083 30.1562 21.5L33.125 19.8125L34.375 21.9688L31.125 23.8125C31.1875 24.0417 31.2448 24.276 31.2969 24.5156C31.349 24.7552 31.3958 25 31.4375 25.25H35.25V27.75H31.4375C31.3958 28 31.3542 28.2448 31.3125 28.4844C31.2708 28.724 31.2188 28.9583 31.1562 29.1875L34.375 31.0625L33.125 33.2188L30.1562 31.5C29.4896 32.625 28.6302 33.5312 27.5781 34.2188C26.526 34.9062 25.3333 35.25 24 35.25ZM21.625 18.1875C21.9792 18.0417 22.3594 17.9323 22.7656 17.8594C23.1719 17.7865 23.5833 17.75 24 17.75C24.4167 17.75 24.8177 17.7812 25.2031 17.8438C25.5885 17.9062 25.9583 18.0104 26.3125 18.1562C26.1458 17.6771 25.8542 17.2812 25.4375 16.9688C25.0208 16.6562 24.5417 16.5 24 16.5C23.4583 16.5 22.9688 16.6615 22.5312 16.9844C22.0938 17.3073 21.7917 17.7083 21.625 18.1875ZM24 32.75C25.5208 32.75 26.7344 32.1146 27.6406 30.8438C28.5469 29.5729 29 28.125 29 26.5C29 25.0417 28.5781 23.6354 27.7344 22.2812C26.8906 20.9271 25.6458 20.25 24 20.25C22.375 20.25 21.1354 20.9219 20.2812 22.2656C19.4271 23.6094 19 25.0208 19 26.5C19 28.125 19.4531 29.5729 20.3594 30.8438C21.2656 32.1146 22.4792 32.75 24 32.75ZM22.75 30.25V22.75H25.25V30.25H22.75Z" fill="black"/>
<rect x="1" y="1" width="46" height="46" rx="23" stroke="black" stroke-width="2"/>
</svg>
